<?xml version="1.0" standalone="no"?>
<!DOCTYPE svg PUBLIC "-//W3C//DTD SVG 20010904//EN"
 "http://www.w3.org/TR/2001/REC-SVG-20010904/DTD/svg10.dtd">
<svg version="1.0" xmlns="http://www.w3.org/2000/svg"
 width="708.000000pt" height="708.000000pt" viewBox="0 0 708.000000 708.000000"
 preserveAspectRatio="xMidYMid meet">
<metadata>
Created by potrace 1.11, written by Peter Selinger 2001-2013
</metadata>
<g transform="translate(0.000000,708.000000) scale(0.100000,-0.100000)"
fill="#000000" stroke="none">
<path d="M3339 6986 c-2 -2 -49 -7 -104 -10 -54 -4 -101 -9 -105 -10 -3 -2
-33 -7 -67 -10 -35 -4 -68 -8 -75 -11 -7 -2 -29 -6 -48 -9 -267 -39 -642 -163
-930 -306 -200 -99 -466 -267 -605 -381 -324 -267 -578 -548 -764 -844 -25
-38 -57 -90 -73 -115 -38 -58 -157 -294 -197 -390 -18 -41 -36 -84 -41 -95
-20 -44 -83 -236 -115 -350 -55 -196 -97 -428 -112 -622 -15 -175 -8 -573 11
-708 2 -11 6 -47 11 -80 4 -33 13 -90 21 -127 7 -37 16 -82 19 -100 20 -117
104 -396 170 -563 29 -74 165 -356 212 -440 53 -94 223 -346 284 -420 180
-218 389 -426 579 -576 243 -192 571 -382 845 -488 61 -24 119 -47 130 -51 93
-39 422 -126 545 -145 25 -4 54 -9 65 -11 11 -2 43 -7 70 -10 28 -3 60 -7 72
-10 122 -25 682 -25 823 1 14 2 43 6 65 9 41 6 73 10 148 21 23 4 44 8 48 10
3 2 21 7 40 10 19 3 70 15 114 26 44 11 85 22 90 23 78 18 354 114 370 127 5
5 15 9 22 9 21 0 312 142 420 205 264 155 480 322 699 540 317 315 542 639
727 1045 64 139 172 454 192 558 1 9 8 35 14 57 9 35 19 86 46 230 3 17 8 50
11 75 3 25 7 58 9 75 14 106 20 226 20 410 0 228 -7 342 -30 490 -3 17 -7 48
-11 70 -5 33 -29 158 -49 250 -3 11 -18 67 -35 125 -17 58 -32 112 -35 120 -2
8 -15 47 -28 85 -136 385 -343 751 -604 1068 -144 175 -374 392 -603 570 -45
36 -238 162 -320 210 -95 55 -323 170 -390 196 -19 7 -75 29 -125 48 -249 97
-579 174 -885 208 -61 7 -535 16 -541 11z"/>
</g>
</svg>
